<svg xmlns="http://www.w3.org/2000/svg" version="1.1" xmlns:xlink="http://www.w3.org/1999/xlink" xmlns:svgjs="http://svgjs.dev/svgjs" width="100%" height="100%" viewBox="0 0 1000 600"><rect width="1000" height="600" x="0" y="0" fill="#2f3c7e"/><g><rect width="333.3333333333333" height="333.3333333333333" rx="13.333333333333334" ry="13.333333333333334" y="77.77777587042934" fill="#fbeaeb" transform="matrix(2.2499999313354513,0,0,2.2499999313354517,0,-249.99999084472722)" x="55.55555725097656"/><path d="M160.72223217497168 169.44445207383916L160.72223217497168 169.44445207383916Q170.72223146854634 169.44445207383916 180.22223079744222 172.25000743120313Q189.72223012633813 175.05556278856716 198.3333406291385 180.25000686606285L198.3333406291385 180.25000686606285L189.11111905839743 193.66667258494218Q182.91667505154427 189.05556179957162 175.6111200120717 186.36111754546957Q168.33334274841462 183.66667329136752 160.52778774426332 183.66667329136752L160.52778774426332 183.66667329136752Q149.916677382748 183.66667329136752 142.52778901582897 188.9444506963097Q135.11112287309444 194.2500058770673 135.11112287309444 205.86111616794008L135.11112287309444 205.86111616794008Q135.11112287309444 212.2500046055017 138.61112262584555 216.75000428761027Q142.1111223785967 221.25000396971885 147.91667752403308 224.6666703950235Q153.72223266946946 228.05555904451265 160.52778774426332 231.25000326329345L160.52778774426332 231.25000326329345Q167.52778724976554 234.44444748207425 174.83334228923812 238.25000276879567Q182.11111955289522 242.05555805551714 188.2222302323019 247.1666688055664Q194.33334091170866 252.25000177980021 198.02778509516816 259.55555681927274Q201.7222292786277 266.8611118587453 201.7222292786277 277.44444444444514L201.7222292786277 277.44444444444514Q201.7222292786277 291.8611100926819 194.72222977312543 301.16666499086944Q187.72223026762322 310.4444421132414 176.33334218327434 314.94444179535003Q164.91667632310995 319.44444147745855 151.72223281075452 319.44444147745855L151.72223281075452 319.44444147745855Q140.91667801853083 319.44444147745855 130.83334539750973 316.5555527926481Q120.72223500067318 313.66666410783773 111.11112456851534 308.66666446105035L111.11112456851534 308.66666446105035L118.33334628054146 292.2499989540987Q124.91667914881143 297.86110966882666 134.33334515026087 301.44444274902423Q143.72223337589483 305.0555536050373 152.3333438786952 305.0555536050373L152.3333438786952 305.0555536050373Q158.91667674696518 305.0555536050373 165.722231821759 302.55555378164365Q172.52778689655287 300.05555395825 177.1111199061079 294.4444432435221Q181.72223069147842 288.8611103046095 181.72223069147842 280.0555553711007L181.72223069147842 280.0555553711007Q181.72223069147842 271.250000437592 177.5277865433402 265.5555563954175Q173.33334239520192 259.86111235324313 166.5277873204081 255.9444459632597Q159.72223224561424 252.0555573490918 152.11112167217132 248.44444649307874L152.11112167217132 248.44444649307874Q145.52778880390136 245.25000227429794 138.9166781598159 241.86111362480878Q132.33334529154592 238.44444719950408 126.91667900752634 233.86111418994906Q121.52779049932224 229.2500034045785 118.33334628054146 222.86111496701696Q115.11112428594518 216.44444875363993 115.11112428594518 207.44444938942277L115.11112428594518 207.44444938942277Q115.11112428594518 194.86111694500804 121.83334603329257 186.444450872916Q128.52779000482448 178.05556257663955 139.02778926307786 173.75000732523932Q149.52778852133122 169.44445207383916 160.72223217497168 169.44445207383916ZM314.72222129602096 317.05555275732684L314.72222129602096 248.25000206237033L243.9166707423495 248.25000206237033L243.9166707423495 317.05555275732684L225.33333872179003 317.05555275732684L225.33333872179003 184.66667322072502Q225.33333872179003 184.44445101420112 224.61111655058738 181.4444512261287Q223.91667215520027 178.44445143805632 223.33333886307508 175.25000721927557Q222.72222779513442 172.05556300049477 222.527783364426 171.4444519325541L222.527783364426 171.4444519325541L243.9166707423495 171.4444519325541L243.9166707423495 234.66666968859815L314.72222129602096 234.66666968859815L314.72222129602096 171.4444519325541L333.33333109239607 171.4444519325541L333.33333109239607 317.05555275732684L314.72222129602096 317.05555275732684Z " fill="#2f3c7e" transform="matrix(2.2499999313354513,0,0,2.2499999313354517,0,-249.99999084472722)"/><path d="MNaN 244.4444461398655 " fill="#fbeaeb" transform="matrix(2.2499999313354513,0,0,2.2499999313354517,0,-249.99999084472722)"/></g></svg>